<?xml version="1.0" encoding="utf-8"?>
<!-- Generator: Adobe Illustrator 24.1.1, SVG Export Plug-In . SVG Version: 6.00 Build 0)  -->
<svg version="1.1" id="Layer_1" xmlns="http://www.w3.org/2000/svg" xmlns:xlink="http://www.w3.org/1999/xlink" x="0px" y="0px"
	 viewBox="0 0 700 700" style="enable-background:new 0 0 700 700;" xml:space="preserve">
<style type="text/css">
	.st0{fill:#3C3C3B;stroke:#DADADA;stroke-width:23.8817;stroke-miterlimit:10;}
	.st1{fill:none;stroke:#3198C8;stroke-width:4.7763;stroke-miterlimit:10;}
	.st2{fill:none;stroke:#DEDC00;stroke-width:4.7763;stroke-miterlimit:10;}
	.st3{fill:#C6C6C6;}
	.st4{font-family:'ArialMT';}
	.st5{font-size:51.1546px;}
	.st6{fill:none;stroke:#EDEDED;stroke-width:2.3882;stroke-miterlimit:10;}
	.st7{font-size:50.8802px;}
	.st8{font-size:51.3792px;}
	.st9{fill:none;stroke:#EDEDED;stroke-width:2.3987;stroke-miterlimit:10.0439;}
	.st10{font-size:51.0778px;}
	.st11{font-size:51.369px;}
	.st12{fill:none;stroke:#EDEDED;stroke-width:2.3982;stroke-miterlimit:10.0419;}
	.st13{font-size:51.3715px;}
	.st14{fill:none;stroke:#EDEDED;stroke-width:2.3983;stroke-miterlimit:10.0424;}
	.st15{fill:#DADADA;}
	.st16{font-size:52.3845px;}
	.st17{fill:none;stroke:#DADADA;stroke-width:2.424;}
	.st18{fill:none;stroke:#DADADA;stroke-width:2.424;stroke-miterlimit:10;}
	.st19{font-size:52.5231px;}
	.st20{fill:none;stroke:#DADADA;stroke-width:2.4304;stroke-miterlimit:10.0265;}
	.st21{font-size:52.1982px;}
	.st22{fill:none;stroke:#DADADA;stroke-width:2.4154;stroke-miterlimit:9.9644;}
	.st23{font-size:52.0481px;}
	.st24{fill:none;stroke:#DADADA;stroke-width:2.4084;stroke-miterlimit:9.9358;}
</style>
<g>
	<circle class="st0" cx="353" cy="353.2" r="331.8"/>
	<circle class="st1" cx="353" cy="353.2" r="331.8"/>
	<circle class="st2" cx="260.9" cy="403.3" r="106.5"/>
	<circle class="st2" cx="260.9" cy="296.9" r="106.5"/>
	<path class="st2" d="M459.5,453.8c0,58.8-47.7,106.5-106.5,106.5s-106.5-47.7-106.5-106.5c0-58.8,47.7-106.5,106.5-106.5
		c0,0,0,0,0,0C411.8,347.4,459.5,395,459.5,453.8z"/>
	<path class="st2" d="M459.5,347.3c0,58.8-47.6,106.5-106.4,106.5c-58.8,0-106.5-47.6-106.5-106.4c0-58.8,47.6-106.5,106.4-106.5
		c0,0,0,0,0,0C411.8,240.9,459.5,288.6,459.5,347.3L459.5,347.3z"/>
	<path class="st2" d="M459.5,240.9c0,58.8-47.7,106.5-106.5,106.5s-106.5-47.7-106.5-106.5c0-58.8,47.7-106.5,106.5-106.5
		c0,0,0,0,0,0C411.8,134.5,459.5,182.1,459.5,240.9C459.5,240.9,459.5,240.9,459.5,240.9z"/>
	<path class="st2" d="M550,403.4c0,58.8-47.6,106.5-106.4,106.5c-58.8,0-106.5-47.6-106.5-106.4c0-58.8,47.6-106.5,106.4-106.5
		c0,0,0,0,0,0C502.4,296.9,550,344.6,550,403.4L550,403.4z"/>
	<path class="st2" d="M550,296.9c0,58.8-47.6,106.5-106.4,106.5S337.1,355.8,337.1,297c0-58.8,47.6-106.5,106.4-106.5c0,0,0,0,0,0
		C502.3,190.5,550,238.1,550,296.9z"/>
	
		<ellipse transform="matrix(0.7071 -0.7071 0.7071 0.7071 -142.4863 350.7016)" class="st2" cx="352.1" cy="347.3" rx="217.7" ry="217.7"/>
	<text transform="matrix(0.341 -0.9401 0.9401 0.341 108.8281 278.0798)" class="st3 st4 st5">C</text>
	<text transform="matrix(0.341 -0.9401 0.9401 0.341 108.8281 278.0798)" class="st6 st4 st5">C</text>
	<text transform="matrix(0.456 -0.89 0.89 0.456 119.7539 248.7175)" class="st3 st4 st5">E</text>
	<text transform="matrix(0.456 -0.89 0.89 0.456 119.7539 248.7175)" class="st6 st4 st5">E</text>
	<text transform="matrix(0.5726 -0.8199 0.8199 0.5726 134.0352 221.0254)" class="st3 st4 st5">N</text>
	<text transform="matrix(0.5726 -0.8199 0.8199 0.5726 134.0352 221.0254)" class="st6 st4 st5">N</text>
	<text transform="matrix(0.6802 -0.733 0.733 0.6802 155.5522 190.9493)" class="st3 st4 st5">T</text>
	<text transform="matrix(0.6802 -0.733 0.733 0.6802 155.5522 190.9493)" class="st6 st4 st5">T</text>
	<text transform="matrix(0.7701 -0.638 0.638 0.7701 178.0376 167.0665)" class="st3 st4 st5">R</text>
	<text transform="matrix(0.7701 -0.638 0.638 0.7701 178.0376 167.0665)" class="st6 st4 st5">R</text>
	<text transform="matrix(0.845 -0.5348 0.5348 0.845 204.1402 145.8833)" class="st3 st4 st5">E</text>
	<text transform="matrix(0.845 -0.5348 0.5348 0.845 204.1402 145.8833)" class="st6 st4 st5">E</text>
	<text transform="matrix(0.954 -0.2999 0.2999 0.954 262.0519 115.111)" class="st3 st4 st5">F</text>
	<text transform="matrix(0.954 -0.2999 0.2999 0.954 262.0519 115.111)" class="st6 st4 st5">F</text>
	<text transform="matrix(0.9953 -0.181 0.1709 0.9853 291.9753 105.904)" class="st3 st4 st7">O</text>
	<text transform="matrix(0.9953 -0.181 0.1709 0.9853 291.9753 105.904)" class="st6 st4 st7">O</text>
	<text transform="matrix(0.9991 -4.274754e-02 4.274754e-02 0.9991 325.0524 100.3047)" class="st3 st4 st5">R</text>
	<text transform="matrix(0.9991 -4.274754e-02 4.274754e-02 0.9991 325.0524 100.3047)" class="st6 st4 st5">R</text>
	<text transform="matrix(0.9757 0.219 -0.219 0.9757 392.9102 102.5139)" class="st3 st4 st8">A</text>
	<text transform="matrix(0.9757 0.219 -0.219 0.9757 392.9102 102.5139)" class="st9 st4 st8">A</text>
	<text transform="matrix(0.934 0.3574 -0.3574 0.934 426.4663 110.3346)" class="st3 st4 st5">N</text>
	<text transform="matrix(0.934 0.3574 -0.3574 0.934 426.4663 110.3346)" class="st6 st4 st5">N</text>
	<text transform="matrix(0.8813 0.4907 -0.4907 0.8713 461.7413 124.3534)" class="st3 st4 st10">A</text>
	<text transform="matrix(0.8813 0.4907 -0.4907 0.8713 461.7413 124.3534)" class="st6 st4 st10">A</text>
	<text transform="matrix(0.81 0.6 -0.6 0.8 491.675 141.5597)" class="st3 st4 st5">L</text>
	<text transform="matrix(0.81 0.6 -0.6 0.8 491.675 141.5597)" class="st6 st4 st5">L</text>
	<text transform="matrix(0.717 0.6971 -0.6971 0.717 516.9903 160.7268)" class="st3 st4 st11">Y</text>
	<text transform="matrix(0.717 0.6971 -0.6971 0.717 516.9903 160.7268)" class="st12 st4 st11">Y</text>
	<text transform="matrix(0.6174 0.7867 -0.7867 0.6174 541.492 185.0488)" class="st3 st4 st13">T</text>
	<text transform="matrix(0.6174 0.7867 -0.7867 0.6174 541.492 185.0488)" class="st14 st4 st13">T</text>
	<text transform="matrix(0.5433 0.8395 -0.8395 0.5433 561.9702 212.3687)" class="st3 st4 st5">I</text>
	<text transform="matrix(0.5433 0.8395 -0.8395 0.5433 561.9702 212.3687)" class="st6 st4 st5">I</text>
	<text transform="matrix(0.4604 0.8877 -0.8877 0.4604 569.6603 223.9769)" class="st3 st4 st5">C</text>
	<text transform="matrix(0.4604 0.8877 -0.8877 0.4604 569.6603 223.9769)" class="st6 st4 st5">C</text>
	<text transform="matrix(0.3422 0.9396 -0.9396 0.3422 583.9058 251.858)" class="st3 st4 st5">S</text>
	<text transform="matrix(0.3422 0.9396 -0.9396 0.3422 583.9058 251.858)" class="st6 st4 st5">S</text>
	<text transform="matrix(0.1915 0.9815 -0.9815 0.1915 67.5473 388.6751)" class="st15 st4 st16">&amp;</text>
	<text transform="matrix(0.1915 0.9815 -0.9815 0.1915 67.5473 388.6751)" class="st17 st4 st16">&amp;</text>
	<text transform="matrix(0.421 0.907 -0.907 0.421 85.8052 457.3355)" class="st15 st4 st16">B</text>
	<text transform="matrix(0.421 0.907 -0.907 0.421 85.8052 457.3355)" class="st18 st4 st16">B</text>
	<text transform="matrix(0.5514 0.8343 -0.8343 0.5514 105.3407 496.7299)" class="st15 st4 st16">E</text>
	<text transform="matrix(0.5514 0.8343 -0.8343 0.5514 105.3407 496.7299)" class="st18 st4 st16">E</text>
	<text transform="matrix(0.6699 0.7424 -0.7424 0.6699 129.0419 530.891)" class="st15 st4 st16">H</text>
	<text transform="matrix(0.6699 0.7424 -0.7424 0.6699 129.0419 530.891)" class="st18 st4 st16">H</text>
	<text transform="matrix(0.7779 0.6283 -0.6283 0.7779 159.3737 562.881)" class="st15 st4 st19">A</text>
	<text transform="matrix(0.7779 0.6283 -0.6283 0.7779 159.3737 562.881)" class="st20 st4 st19">A</text>
	<text transform="matrix(0.8666 0.4989 -0.4989 0.8666 194.1691 589.9391)" class="st15 st4 st16">V</text>
	<text transform="matrix(0.8666 0.4989 -0.4989 0.8666 194.1691 589.9391)" class="st18 st4 st16">V</text>
	<text transform="matrix(0.9191 0.3939 -0.3939 0.9191 236.4876 612.4594)" class="st15 st4 st16">I</text>
	<text transform="matrix(0.9191 0.3939 -0.3939 0.9191 236.4876 612.4594)" class="st18 st4 st16">I</text>
	<text transform="matrix(0.9568 0.2907 -0.2907 0.9568 254.5426 620.1255)" class="st15 st4 st16">O</text>
	<text transform="matrix(0.9568 0.2907 -0.2907 0.9568 254.5426 620.1255)" class="st18 st4 st16">O</text>
	<text transform="matrix(0.9902 0.1399 -0.1399 0.9902 297.0265 631.9106)" class="st15 st4 st16">U</text>
	<text transform="matrix(0.9902 0.1399 -0.1399 0.9902 297.0265 631.9106)" class="st18 st4 st16">U</text>
	<text transform="matrix(0.9999 -1.361315e-02 1.361315e-02 0.9999 340.7543 636.9968)" class="st15 st4 st16">R</text>
	<text transform="matrix(0.9999 -1.361315e-02 1.361315e-02 0.9999 340.7543 636.9968)" class="st18 st4 st16">R</text>
	<text transform="matrix(0.9862 -0.1657 0.1657 0.9862 384.7804 635.3246)" class="st15 st4 st16">A</text>
	<text transform="matrix(0.9862 -0.1657 0.1657 0.9862 384.7804 635.3246)" class="st18 st4 st16">A</text>
	<text transform="matrix(0.9513 -0.3084 0.3084 0.9513 427.8268 626.9666)" class="st15 st4 st16">L</text>
	<text transform="matrix(0.9513 -0.3084 0.3084 0.9513 427.8268 626.9666)" class="st18 st4 st16">L</text>
	<text transform="matrix(0.853 -0.5219 0.5219 0.853 490.5891 601.6295)" class="st15 st4 st21">C</text>
	<text transform="matrix(0.853 -0.5219 0.5219 0.853 490.5891 601.6295)" class="st22 st4 st21">C</text>
	<text transform="matrix(0.7649 -0.6441 0.6441 0.7649 525.562 579.048)" class="st15 st4 st23">H</text>
	<text transform="matrix(0.7649 -0.6441 0.6441 0.7649 525.562 579.048)" class="st24 st4 st23">H</text>
	<text transform="matrix(0.6563 -0.7545 0.7545 0.6563 558.5558 549.8178)" class="st15 st4 st16">A</text>
	<text transform="matrix(0.6563 -0.7545 0.7545 0.6563 558.5558 549.8178)" class="st18 st4 st16">A</text>
	<text transform="matrix(0.5158 -0.8567 0.8567 0.5158 587.0096 515.9645)" class="st15 st4 st16">N</text>
	<text transform="matrix(0.5158 -0.8567 0.8567 0.5158 587.0096 515.9645)" class="st18 st4 st16">N</text>
	<text transform="matrix(0.3878 -0.9217 0.9217 0.3878 610.9289 474.7346)" class="st15 st4 st16">G</text>
	<text transform="matrix(0.3878 -0.9217 0.9217 0.3878 610.9289 474.7346)" class="st18 st4 st16">G</text>
	<text transform="matrix(0.246 -0.9693 0.9693 0.246 626.9168 433.8362)" class="st15 st4 st16">E</text>
	<text transform="matrix(0.246 -0.9693 0.9693 0.246 626.9168 433.8362)" class="st18 st4 st16">E</text>
</g>
</svg>
